# xmcd
#
# Track frame offsets:
#	150
#	13854
#	29772
#	44338
#	58367
#	75194
#	91167
#	108031
#	124380
#	141091
#	155592
#	174692
#	190091
#	206538
#	224127
#	242120
#	257591
#	273391
#
# Disc length: 3854 seconds
#
# Revision: 0
# Processed by: cddbd v1.5.1PL0 Copyright (c) Steve Scherf et al.
# Submitted via: dBpowerAMP V4.0
#
DISCID=080f0c12
DTITLE=Varios - FM Sertanejo 2004
DYEAR=2004
DGENRE=Country
TTITLE0=Amo você  - Gino and Geno
TTITLE1=Porta retrato - Edson and Hudson
TTITLE2=Teimosa - Gian and Giovani
TTITLE3=Cara de boi - Gino and Geno
TTITLE4=Um degrau da escada - Chico Rey and Parana
TTITLE5=Trânsito parado - Bruno and Marrone
TTITLE6=Esse cara não existe mais - Zezé di Camargo and Luciano
TTITLE7=Olhos do amor - Gian and Giovani
TTITLE8=Nada mudou - Di Paulo and Paulino
TTITLE9=Dois a um - Roberta Miranda
TTITLE10=Decida - Milionário and José Rico
TTITLE11=Meu coração chorou - Cleyton and Camargo
TTITLE12=Vou cuidar melhor de mim - Adalberto and Adriano
TTITLE13=De lá pra cá - Chico Rey and Paraná
TTITLE14=Amor demais - Renê and Ronaldo
TTITLE15=O bicho vai pegar - Edson and Hudson
TTITLE16=Amor sem compromisso - Ruan and Ricardo
TTITLE17=Nosso amor é ouro - Zezé di Camargo and Luciano
EXTD=FM Sertanejo 2004
EXTT0=
EXTT1=
EXTT2=
EXTT3=
EXTT4=
EXTT5=
EXTT6=
EXTT7=
EXTT8=
EXTT9=
EXTT10=
EXTT11=
EXTT12=
EXTT13=
EXTT14=
EXTT15=
EXTT16=
EXTT17=
PLAYORDER=
